<svg xmlns="http://www.w3.org/2000/svg" xmlns:xlink="http://www.w3.org/1999/xlink" width="28" height="28" viewBox="0 0 28 28"><defs><style>.a{opacity:0;}.b{clip-path:url(#a);}</style><clipPath id="a"><rect width="24" height="24" transform="translate(1245 28)"/></clipPath></defs><g transform="translate(-1243 -26)"><rect class="a" width="28" height="28" transform="translate(1243 26)"/><g class="b"><g transform="translate(1245 28)"><path d="M12,0A12,12,0,1,0,24,12,12.014,12.014,0,0,0,12,0Zm0,22.1A10.1,10.1,0,1,1,22.1,12,10.112,10.112,0,0,1,12,22.1Z"/><path d="M12,14.129a11.219,11.219,0,0,0-8.891,4.765L4.616,20.05A9.368,9.368,0,0,1,12,16.029a9.367,9.367,0,0,1,7.383,4.021l1.507-1.156A11.219,11.219,0,0,0,12,14.129Z"/><path d="M12,4.306a4.971,4.971,0,1,0,4.939,4.971A4.961,4.961,0,0,0,12,4.306Zm0,8.042a3.071,3.071,0,1,1,3.04-3.071A3.059,3.059,0,0,1,12,12.348Z"/></g></g></g></svg>