<svg xmlns="http://www.w3.org/2000/svg" xmlns:xlink="http://www.w3.org/1999/xlink" width="28" height="28" viewBox="0 0 28 28"><defs><style>.a{opacity:0;}.b{clip-path:url(#a);}</style><clipPath id="a"><rect width="24" height="24" transform="translate(1256 31)"/></clipPath></defs><g transform="translate(-1252 -27)"><rect class="a" width="28" height="28" transform="translate(1252 27)"/><g class="b" transform="translate(-2 -2)"><g transform="translate(1256 31)"><path d="M19,17A2.993,2.993,0,1,0,22,19.99,3,3,0,0,0,19,17Zm0,4.19a1.2,1.2,0,1,1,1.2-1.2A1.2,1.2,0,0,1,19,21.187Z"/><path d="M23.809,5.432a.9.9,0,0,0-.707-.344H5.542L4.734,1.707a.9.9,0,0,0-.873-.689H.9a.9.9,0,1,0,0,1.8H3.152L6.069,15.021a.9.9,0,0,0,.873.689H20.918a.9.9,0,0,0,.871-.682L23.974,6.2A.9.9,0,0,0,23.809,5.432Zm-3.594,8.483H7.651L5.971,6.883H21.955Z"/><path d="M8.14,17a2.993,2.993,0,1,0,2.993,2.993A3,3,0,0,0,8.14,17Zm0,4.19a1.2,1.2,0,1,1,1.2-1.2A1.2,1.2,0,0,1,8.14,21.187Z"/></g></g></g></svg>