<svg xmlns="http://www.w3.org/2000/svg" xmlns:xlink="http://www.w3.org/1999/xlink" width="28" height="28" viewBox="0 0 28 28"><defs><style>.a{opacity:0;}.b{clip-path:url(#a);}</style><clipPath id="a"><rect width="24" height="24" transform="translate(1053 28)"/></clipPath></defs><g transform="translate(-1051 -26)"><rect class="a" width="28" height="28" transform="translate(1051 26)"/><g class="b"><path d="M23.377,10.439l0,0L13.585.647a2.209,2.209,0,0,0-3.125,0L.675,10.432l-.01.01a2.208,2.208,0,0,0,1.47,3.764c.023,0,.045,0,.068,0h.39v7.2A2.589,2.589,0,0,0,5.18,24H9.01a.7.7,0,0,0,.7-.7V17.648a1.181,1.181,0,0,1,1.18-1.18h2.259a1.181,1.181,0,0,1,1.18,1.18V23.3a.7.7,0,0,0,.7.7h3.83a2.589,2.589,0,0,0,2.586-2.586v-7.2h.362a2.21,2.21,0,0,0,1.564-3.771Zm-1,2.129a.8.8,0,0,1-.568.235H20.748a.7.7,0,0,0-.7.7v7.908a1.181,1.181,0,0,1-1.18,1.18H15.738V17.648a2.589,2.589,0,0,0-2.586-2.586H10.893a2.589,2.589,0,0,0-2.586,2.586v4.945H5.18A1.181,1.181,0,0,1,4,21.414V13.507a.7.7,0,0,0-.7-.7H2.217a.8.8,0,0,1-.553-1.37h0l9.79-9.789a.8.8,0,0,1,1.136,0l9.788,9.787,0,0A.8.8,0,0,1,22.381,12.568Zm0,0" transform="translate(1052.978 28)"/></g></g></svg>