<svg xmlns="http://www.w3.org/2000/svg" xmlns:xlink="http://www.w3.org/1999/xlink" width="24" height="24" viewBox="0 0 24 24"><defs><style>.a{opacity:0;}.b{clip-path:url(#a);}</style><clipPath id="a"><rect width="20" height="20"/></clipPath></defs><g transform="translate(-1034 -26)"><rect class="a" width="24" height="24" transform="translate(1034 26)"/><g class="b" transform="translate(1036 28)"><path d="M8.808,0a8.808,8.808,0,1,0,8.808,8.808A8.818,8.818,0,0,0,8.808,0Zm0,15.989a7.182,7.182,0,1,1,7.182-7.182A7.19,7.19,0,0,1,8.808,15.989Z"/><g transform="translate(13.713 13.713)"><path d="M22.5,21.355l-4.661-4.661a.813.813,0,0,0-1.15,1.15L21.355,22.5a.813.813,0,0,0,1.15-1.15Z" transform="translate(-16.455 -16.455)"/></g></g></g></svg>