<svg xmlns="http://www.w3.org/2000/svg" xmlns:xlink="http://www.w3.org/1999/xlink" width="28" height="28" viewBox="0 0 28 28"><defs><style>.a{opacity:0;}.b{clip-path:url(#a);}</style><clipPath id="a"><rect width="24" height="24" transform="translate(1094 28)"/></clipPath></defs><g transform="translate(-1092 -26)"><rect class="a" width="28" height="28" transform="translate(1092 26)"/><g class="b"><g transform="translate(1094 28)"><path d="M23.977,8.069l-1.5-6A.749.749,0,0,0,21.75,1.5H2.25a.749.749,0,0,0-.727.569l-1.5,6A.734.734,0,0,0,0,8.25,3.8,3.8,0,0,0,1.5,11.3V21.75a.75.75,0,0,0,.75.75h7.5a.75.75,0,0,0,.75-.75V16.5h3v5.25a.75.75,0,0,0,.75.75h7.5a.75.75,0,0,0,.75-.75V11.3A3.8,3.8,0,0,0,24,8.25.734.734,0,0,0,23.977,8.069ZM21,21H15V15.75a.75.75,0,0,0-.75-.75H9.75a.75.75,0,0,0-.75.75V21H3V11.94a3.327,3.327,0,0,0,.563.06,3.5,3.5,0,0,0,2.813-1.451,3.452,3.452,0,0,0,5.625,0,3.452,3.452,0,0,0,5.625,0A3.5,3.5,0,0,0,20.438,12,3.327,3.327,0,0,0,21,11.94Zm-.562-10.5a2.165,2.165,0,0,1-2.062-2.25.75.75,0,0,0-1.5,0,2.165,2.165,0,0,1-2.062,2.25A2.165,2.165,0,0,1,12.75,8.25a.75.75,0,0,0-1.5,0A2.165,2.165,0,0,1,9.188,10.5,2.165,2.165,0,0,1,7.125,8.25a.75.75,0,0,0-1.5,0A2.165,2.165,0,0,1,3.563,10.5,2.157,2.157,0,0,1,1.5,8.337L2.837,3H21.165L22.5,8.337A2.159,2.159,0,0,1,20.438,10.5Z"/></g></g></g></svg>